<mxfile host="app.diagrams.net" modified="2021-09-05T13:10:24.862Z" agent="5.0 (Windows NT 10.0; Win64; x64) AppleWebKit/537.36 (KHTML, like Gecko) Chrome/93.0.4577.63 Safari/537.36" etag="3ylZEFARfK4ZYo-CFumd" version="15.0.6" type="github">
  <diagram id="kgpKYQtTHZ0yAKxKKP6v" name="Page-1">
    <mxGraphModel dx="1422" dy="737" grid="1" gridSize="10" guides="1" tooltips="1" connect="1" arrows="1" fold="1" page="1" pageScale="1" pageWidth="850" pageHeight="1100" math="0" shadow="0">
      <root>
        <mxCell id="0" />
        <mxCell id="1" parent="0" />
        <mxCell id="zdOm7Ws3kbpws4WN7t2Z-17" value="" style="shape=umlLifeline;perimeter=lifelinePerimeter;container=1;collapsible=0;recursiveResize=0;rounded=0;shadow=0;strokeWidth=1;" vertex="1" parent="1">
          <mxGeometry x="30" y="190" width="100" height="400" as="geometry" />
        </mxCell>
        <mxCell id="3nuBFxr9cyL0pnOWT2aG-1" value=":DvdDisk" style="shape=umlLifeline;perimeter=lifelinePerimeter;container=1;collapsible=0;recursiveResize=0;rounded=0;shadow=0;strokeWidth=1;" parent="1" vertex="1">
          <mxGeometry x="200" y="190" width="100" height="400" as="geometry" />
        </mxCell>
        <mxCell id="3nuBFxr9cyL0pnOWT2aG-5" value=":OpticalDiscDrive" style="shape=umlLifeline;perimeter=lifelinePerimeter;container=1;collapsible=0;recursiveResize=0;rounded=0;shadow=0;strokeWidth=1;" parent="1" vertex="1">
          <mxGeometry x="380" y="190" width="100" height="400" as="geometry" />
        </mxCell>
        <mxCell id="3nuBFxr9cyL0pnOWT2aG-6" value="" style="points=[];perimeter=orthogonalPerimeter;rounded=0;shadow=0;strokeWidth=1;" parent="3nuBFxr9cyL0pnOWT2aG-5" vertex="1">
          <mxGeometry x="45" y="110" width="10" height="240" as="geometry" />
        </mxCell>
        <mxCell id="zdOm7Ws3kbpws4WN7t2Z-5" value="Actor" style="shape=umlActor;verticalLabelPosition=bottom;verticalAlign=top;html=1;outlineConnect=0;" vertex="1" parent="1">
          <mxGeometry x="60" y="130" width="30" height="60" as="geometry" />
        </mxCell>
        <mxCell id="zdOm7Ws3kbpws4WN7t2Z-8" value="" style="points=[];perimeter=orthogonalPerimeter;rounded=0;shadow=0;strokeWidth=1;" vertex="1" parent="1">
          <mxGeometry x="75" y="260" width="10" height="330" as="geometry" />
        </mxCell>
        <mxCell id="3nuBFxr9cyL0pnOWT2aG-2" value="" style="points=[];perimeter=orthogonalPerimeter;rounded=0;shadow=0;strokeWidth=1;" parent="1" vertex="1">
          <mxGeometry x="245" y="280" width="10" height="260" as="geometry" />
        </mxCell>
        <mxCell id="zdOm7Ws3kbpws4WN7t2Z-21" value="1. Takes The Disk ()" style="verticalAlign=bottom;endArrow=open;shadow=0;strokeWidth=1;endFill=0;" edge="1" parent="1" source="zdOm7Ws3kbpws4WN7t2Z-17">
          <mxGeometry relative="1" as="geometry">
            <mxPoint x="130" y="280" as="sourcePoint" />
            <mxPoint x="250" y="280" as="targetPoint" />
          </mxGeometry>
        </mxCell>
        <mxCell id="zdOm7Ws3kbpws4WN7t2Z-22" value="2. Input Disk in Drive ()" style="verticalAlign=bottom;endArrow=openThin;shadow=0;strokeWidth=1;endFill=0;" edge="1" parent="1">
          <mxGeometry relative="1" as="geometry">
            <mxPoint x="255" y="300" as="sourcePoint" />
            <mxPoint x="430" y="300" as="targetPoint" />
          </mxGeometry>
        </mxCell>
        <mxCell id="zdOm7Ws3kbpws4WN7t2Z-23" value="3. Add Recoder Info ()" style="verticalAlign=bottom;endArrow=openThin;shadow=0;strokeWidth=1;exitX=0.9;exitY=0.267;exitDx=0;exitDy=0;exitPerimeter=0;endFill=0;" edge="1" parent="1">
          <mxGeometry x="-0.0844" relative="1" as="geometry">
            <mxPoint x="84" y="322.0999999999999" as="sourcePoint" />
            <mxPoint x="250" y="322" as="targetPoint" />
            <Array as="points">
              <mxPoint x="195" y="321.5" />
            </Array>
            <mxPoint as="offset" />
          </mxGeometry>
        </mxCell>
        <mxCell id="zdOm7Ws3kbpws4WN7t2Z-27" value="" style="shape=umlLifeline;perimeter=lifelinePerimeter;container=1;collapsible=0;recursiveResize=0;rounded=0;shadow=0;strokeWidth=1;" vertex="1" parent="1">
          <mxGeometry x="550" y="190" width="100" height="400" as="geometry" />
        </mxCell>
        <mxCell id="zdOm7Ws3kbpws4WN7t2Z-28" value="Actor 2" style="shape=umlActor;verticalLabelPosition=bottom;verticalAlign=top;html=1;outlineConnect=0;" vertex="1" parent="1">
          <mxGeometry x="585" y="130" width="30" height="60" as="geometry" />
        </mxCell>
        <mxCell id="zdOm7Ws3kbpws4WN7t2Z-30" value="4. failed no free space ()" style="verticalAlign=bottom;endArrow=openThin;shadow=0;strokeWidth=1;exitX=0.1;exitY=0.354;exitDx=0;exitDy=0;exitPerimeter=0;entryX=0.5;entryY=0.4;entryDx=0;entryDy=0;entryPerimeter=0;endFill=0;" edge="1" parent="1">
          <mxGeometry relative="1" as="geometry">
            <mxPoint x="246" y="344.1199999999999" as="sourcePoint" />
            <mxPoint x="80" y="345" as="targetPoint" />
            <Array as="points">
              <mxPoint x="195" y="345" />
            </Array>
          </mxGeometry>
        </mxCell>
        <mxCell id="zdOm7Ws3kbpws4WN7t2Z-32" value="5. ReAdd Recoder Info ()" style="verticalAlign=bottom;endArrow=openThin;shadow=0;strokeWidth=1;exitX=0.9;exitY=0.267;exitDx=0;exitDy=0;exitPerimeter=0;endFill=0;" edge="1" parent="1">
          <mxGeometry relative="1" as="geometry">
            <mxPoint x="85" y="371.0999999999999" as="sourcePoint" />
            <mxPoint x="251" y="371" as="targetPoint" />
            <Array as="points">
              <mxPoint x="196" y="370.5" />
            </Array>
          </mxGeometry>
        </mxCell>
        <mxCell id="zdOm7Ws3kbpws4WN7t2Z-33" value="completed successfully ()" style="verticalAlign=bottom;endArrow=openThin;shadow=0;strokeWidth=1;exitX=0.1;exitY=0.354;exitDx=0;exitDy=0;exitPerimeter=0;entryX=0.5;entryY=0.4;entryDx=0;entryDy=0;entryPerimeter=0;endFill=0;" edge="1" parent="1">
          <mxGeometry relative="1" as="geometry">
            <mxPoint x="247" y="531.1199999999999" as="sourcePoint" />
            <mxPoint x="81" y="532" as="targetPoint" />
            <Array as="points">
              <mxPoint x="196" y="532" />
            </Array>
          </mxGeometry>
        </mxCell>
        <mxCell id="zdOm7Ws3kbpws4WN7t2Z-34" value="Finish Write ()" style="verticalAlign=bottom;endArrow=openThin;shadow=0;strokeWidth=1;exitX=0.1;exitY=0.354;exitDx=0;exitDy=0;exitPerimeter=0;entryX=0.5;entryY=0.4;entryDx=0;entryDy=0;entryPerimeter=0;endFill=0;" edge="1" parent="1">
          <mxGeometry relative="1" as="geometry">
            <mxPoint x="421" y="530.1199999999999" as="sourcePoint" />
            <mxPoint x="255" y="531" as="targetPoint" />
            <Array as="points">
              <mxPoint x="370" y="531" />
            </Array>
          </mxGeometry>
        </mxCell>
        <mxCell id="zdOm7Ws3kbpws4WN7t2Z-36" value="" style="points=[];perimeter=orthogonalPerimeter;rounded=0;shadow=0;strokeWidth=1;" vertex="1" parent="1">
          <mxGeometry x="595" y="570" width="10" height="20" as="geometry" />
        </mxCell>
        <mxCell id="zdOm7Ws3kbpws4WN7t2Z-35" value="give the discÂ ()" style="verticalAlign=bottom;endArrow=openThin;shadow=0;strokeWidth=1;exitX=0.9;exitY=0.267;exitDx=0;exitDy=0;exitPerimeter=0;endFill=0;" edge="1" parent="1">
          <mxGeometry relative="1" as="geometry">
            <mxPoint x="82" y="587.0999999999999" as="sourcePoint" />
            <mxPoint x="600" y="587" as="targetPoint" />
            <Array as="points">
              <mxPoint x="193" y="586.5" />
            </Array>
          </mxGeometry>
        </mxCell>
      </root>
    </mxGraphModel>
  </diagram>
</mxfile>
